<?xml version="1.0" ?><svg style="enable-background:new 0 0 64 64;" version="1.1" viewBox="0 0 64 64" xml:space="preserve" xmlns="http://www.w3.org/2000/svg" xmlns:xlink="http://www.w3.org/1999/xlink"><style type="text/css">
	.st0{fill:none;stroke:#000000;stroke-width:2;stroke-linecap:round;stroke-linejoin:round;stroke-miterlimit:10;}
	.st1{fill:none;stroke:#000000;stroke-width:2;stroke-miterlimit:10;}
</style><g id="Layer_1"/><g id="Layer_2"><g><path class="st0" d="M21.3,14.5h31.9c2.2,0,3.9,1.8,3.9,3.9v0c0,2.2-1.8,3.9-3.9,3.9H10.8c-2.2,0-3.9-1.8-3.9-3.9v0    c0-2.2,1.8-3.9,3.9-3.9h4.7"/><path class="st0" d="M39.3,36H10.8c-2.2,0-3.9-1.8-3.9-3.9v0c0-2.2,1.8-3.9,3.9-3.9h42.4c2.2,0,3.9,1.8,3.9,3.9v0    c0,2.2-1.8,3.9-3.9,3.9"/><path class="st0" d="M8.1,48.4c-0.8-0.7-1.2-1.7-1.2-2.9v0c0-2.2,1.8-3.9,3.9-3.9"/><path class="st0" d="M15.5,41.7h37.6c2.2,0,3.9,1.8,3.9,3.9v0c0,2.2-1.8,3.9-3.9,3.9h-41"/></g></g></svg>